<svg xmlns="http://www.w3.org/2000/svg" width="790" height="190" viewBox="0 0 790 190" version="1.1"><path d="" stroke="none" fill="#83c595" fill-rule="evenodd"/><path d="" stroke="none" fill="#8dc7af" fill-rule="evenodd"/><path d="" stroke="none" fill="#a5d9cc" fill-rule="evenodd"/><path d="" stroke="none" fill="#81cac1" fill-rule="evenodd"/><path d="M 432.107 122.750 C 434.899 127.790, 435.675 128.507, 438.396 128.560 C 440.103 128.592, 442.288 128.978, 443.250 129.417 C 445.990 130.665, 445.475 126.718, 442.425 123.093 C 440.365 120.645, 432.502 117, 429.279 117 C 429.083 117, 430.355 119.588, 432.107 122.750 M 427.698 119.635 C 426.607 120.726, 426.880 131, 428 131 C 428.550 131, 429 131.955, 429 133.122 C 429 134.848, 429.267 135.023, 430.428 134.060 C 431.599 133.088, 431.924 133.380, 432.237 135.688 C 432.575 138.176, 432.707 138.270, 433.382 136.500 C 433.801 135.400, 434.489 133.840, 434.910 133.033 C 435.367 132.158, 434.895 130.241, 433.740 128.284 C 431.716 124.853, 430 124.749, 430 128.059 C 430 129.127, 429.550 130, 429 130 C 427.520 130, 427.787 126.894, 429.423 125.079 C 430.921 123.417, 429.235 118.098, 427.698 119.635 M 436.084 130.290 C 436.502 133.593, 435.854 137.004, 434.562 138.295 C 433.312 139.545, 433.334 140.032, 434.735 142.032 C 435.621 143.297, 435.792 143.989, 435.115 143.571 C 434.438 143.153, 435.148 144.599, 436.692 146.786 C 438.360 149.147, 439.631 150.201, 439.823 149.381 C 440.001 148.621, 440.616 148, 441.190 148 C 441.764 148, 442.003 148.879, 441.722 149.954 C 441.441 151.028, 441.845 152.715, 442.620 153.704 C 443.395 154.692, 443.952 155.050, 443.858 154.500 C 443.532 152.589, 446.707 146.717, 447.432 147.890 C 447.820 148.518, 448.492 148.814, 448.925 148.547 C 449.357 148.279, 449.492 149.209, 449.223 150.612 C 448.955 152.016, 448.170 153.381, 447.478 153.647 C 445.511 154.402, 446.844 157.465, 450.738 161.139 C 452.697 162.987, 453.974 163.825, 453.576 163 C 453.178 162.175, 453.522 162.322, 454.342 163.326 C 455.161 164.331, 456.432 165.252, 457.166 165.374 C 457.900 165.496, 459.483 166.137, 460.684 166.798 C 463.243 168.206, 465.664 168.352, 466.411 167.144 C 466.702 166.674, 465.913 166.485, 464.659 166.725 C 463.317 166.981, 461.817 166.485, 461.015 165.518 C 459.793 164.045, 459.929 163.944, 462.325 164.546 C 465.279 165.287, 465.498 164.901, 463.947 161.684 C 463.217 160.170, 463.676 160.420, 465.442 162.500 C 467.990 165.500, 467.990 165.500, 467.981 161 C 467.970 155.013, 467.080 152, 465.324 152 C 464.531 152, 464.187 151.507, 464.559 150.905 C 465.925 148.694, 462.635 145.040, 457.279 142.820 C 453.029 141.059, 452.254 140.420, 453.681 139.858 C 455.355 139.198, 455.361 139.135, 453.750 139.070 C 452.788 139.032, 451.987 138.438, 451.971 137.750 C 451.911 135.214, 446.249 130.122, 444.110 130.681 C 442.983 130.976, 440.682 130.736, 438.996 130.149 C 436.669 129.337, 435.968 129.371, 436.084 130.290" stroke="none" fill="#52b5d1" fill-rule="evenodd"/><path d="M 406.798 40.931 C 359.787 55.962, 362.833 132.770, 410.886 144.006 C 422.856 146.804, 435.828 144.502, 433.496 139.993 C 432.673 138.401, 432 136.122, 432 134.927 C 432 133.110, 431.755 132.958, 430.500 134 C 429.250 135.038, 429 134.904, 429 133.197 C 429 131.338, 428.414 131.158, 422.630 131.246 C 393.734 131.684, 384.808 71.090, 411.467 55.467 C 435.838 41.184, 456.978 82.863, 442.140 115.943 C 440.147 120.387, 440.147 120.387, 442.574 123.270 C 443.908 124.856, 445 126.818, 445 127.631 C 445 133.443, 450.928 135.410, 455.047 130.966 C 491.558 91.568, 455.992 25.201, 406.798 40.931 M 16.200 47.180 L 16.500 53.500 24.155 53.790 L 31.810 54.081 32.243 63.790 C 32.917 78.913, 32.541 128.792, 31.747 129.586 C 31.355 129.978, 27.652 130.515, 23.518 130.781 C 16 131.263, 16 131.263, 16 137.132 L 16 143 42 143 L 68 143 68 137.044 C 68 131.088, 68 131.088, 60.750 130.794 L 53.500 130.500 53.226 113.250 L 52.953 96 62.405 96 C 75.528 96, 76.141 96.741, 78.489 115.449 C 81.309 137.911, 86.803 144.956, 101.500 144.956 C 115.673 144.956, 120.690 138.518, 121.719 119.009 L 122.300 108 117.244 108 C 112.187 108, 112.187 108, 111.844 117.897 C 111.139 138.184, 102.805 137.552, 100.018 117 C 98.670 107.063, 95.292 98.892, 91.504 96.411 C 88.820 94.652, 88.820 94.652, 94.660 91.961 C 113.135 83.448, 114.680 57.637, 97.356 46.914 C 89.476 42.037, 86.504 41.680, 50.200 41.258 L 15.901 40.859 16.200 47.180 M 324 46.500 C 324 52, 324 52, 331 52 C 338.851 52, 338.019 49.904, 338.392 70.622 L 338.520 77.745 334.614 74.402 C 313.313 56.169, 283.947 81.804, 288.968 114.250 C 293.306 142.286, 321.680 155.740, 335.377 136.256 L 338.500 131.813 338.801 137.434 L 339.101 143.056 352.801 142.778 L 366.500 142.500 366.500 137 C 366.500 131.500, 366.500 131.500, 361.250 131.198 L 356 130.895 356 85.948 L 356 41 340 41 L 324 41 324 46.500 M 732.664 41.734 C 732.376 42.201, 730.966 45.702, 729.530 49.515 C 725.100 61.285, 718.583 69.657, 709.750 74.926 C 702.963 78.975, 704.353 82, 713 82 L 720 82 720.076 105.250 C 720.181 137.232, 723.190 143.219, 739.912 144.721 C 755.866 146.153, 763.517 138.004, 764.762 118.250 C 765.550 105.747, 755.722 105.076, 754.591 117.556 C 753.380 130.919, 748.255 135.561, 741.306 129.588 C 738.500 127.177, 738.500 127.177, 738.182 104.620 L 737.863 82.063 750.182 81.781 L 762.500 81.500 762.801 76.281 L 763.102 71.062 750.801 70.781 L 738.500 70.500 738 56 C 737.506 41.688, 735.692 36.836, 732.664 41.734 M 53 69.647 L 53 85.295 63.268 84.631 C 80.002 83.549, 83.707 81.699, 85.931 73.318 C 89.482 59.934, 82.117 54, 61.951 54 L 53 54 53 69.647 M 150 69.935 C 112.509 81.381, 118.650 141.783, 157.604 144.729 C 177.542 146.237, 201.764 125.524, 186.980 119.609 C 181.599 117.456, 181.819 117.384, 178.247 122.452 C 167.398 137.843, 146.268 131.690, 144.295 112.565 L 143.724 107.036 168.612 106.768 L 193.500 106.500 193.242 100.767 C 192.267 79.058, 170.636 63.635, 150 69.935 M 219.148 70.850 C 201.206 77.258, 197.608 99, 214.491 99 C 225.607 99, 230.200 90.707, 223.946 81.924 C 221.060 77.871, 229.924 76.270, 237.568 79.464 C 251.187 85.154, 245.274 98.555, 225.903 105.902 C 205.588 113.606, 201.379 117.735, 202.204 129.147 C 203.468 146.619, 229.692 151.039, 242.411 135.924 C 243.880 134.177, 245.191 132.918, 245.324 133.124 C 245.457 133.331, 246.226 134.806, 247.033 136.401 C 251.454 145.146, 269.040 148.044, 277.006 141.341 C 281.920 137.207, 283.271 133.505, 283.794 122.750 L 284.267 113 279.134 113 C 274 113, 274 113, 274 120.777 C 274 129.451, 272.431 133, 268.598 133 C 263.113 133, 262.544 130.725, 262 106.647 C 261.452 82.353, 260.930 80.237, 254.179 74.926 C 246.923 69.217, 229.421 67.181, 219.148 70.850 M 588.882 70.323 C 550.785 84.539, 560.581 144.500, 601 144.500 C 621.330 144.500, 641.005 124.986, 626.327 119.381 C 621.675 117.604, 621.675 117.604, 620.087 120.011 C 608.092 138.196, 586.266 133.232, 584.212 111.852 L 583.746 107 608.404 107 C 636.503 107, 634.744 107.654, 632.987 97.861 C 629.096 76.182, 608.180 63.123, 588.882 70.323 M 658.148 70.852 C 647.507 74.649, 643 80.073, 643 89.083 C 643 102.166, 647.604 106.359, 669.854 113.541 C 686.917 119.049, 691.176 127.683, 679.282 132.655 C 674.500 134.654, 658 133.817, 658 131.575 C 658 131.393, 658.683 129.611, 659.517 127.614 C 663.526 118.020, 652.433 111.414, 644.923 118.923 C 629.677 134.169, 665.405 152.660, 689.126 141.800 C 714.194 130.323, 707.078 106.700, 675.500 96.568 C 658.173 91.009, 653.687 83.224, 665.701 79.566 C 674.562 76.869, 689.943 80.313, 685.500 84 C 678.066 90.170, 689.458 100.387, 698.088 95.289 C 718.024 83.513, 682.899 62.022, 658.148 70.852 M 473.198 76.250 C 473.500 81.500, 473.500 81.500, 479.092 81.795 L 484.683 82.090 485.326 105.295 C 485.956 128.083, 486.018 128.598, 488.742 133.952 C 495.876 147.974, 518.977 148.996, 529.416 135.751 C 531.978 132.500, 531.978 132.500, 531.989 138.250 C 532.002 144.852, 531.134 144.610, 550.250 143.344 L 560 142.698 560 137.349 C 560 132, 560 132, 556 131.875 C 553.800 131.806, 551.438 131.694, 550.750 131.625 C 549.787 131.529, 549.439 124.561, 549.235 101.250 L 548.971 71 533.933 71 L 518.895 71 519.198 76.250 C 519.500 81.500, 519.500 81.500, 525.250 81.800 L 531 82.100 531 99.684 C 531 123.747, 528.924 129.311, 518.930 132.032 C 505.131 135.789, 503.004 131.144, 503.002 97.250 L 503 71 487.948 71 L 472.895 71 473.198 76.250 M 152.476 83.155 C 148.577 86.578, 145 92.706, 145 95.960 C 145 97.923, 145.569 98, 160 98 C 175 98, 175 98, 174.978 94.750 C 174.893 82.198, 161.454 75.273, 152.476 83.155 M 318.500 81.537 C 316.300 82.325, 314.406 82.977, 314.292 82.985 C 305.641 83.612, 305.402 119.637, 313.992 128.227 C 329.340 143.575, 347.181 108.967, 334.788 87.887 C 331.047 81.524, 325.057 79.188, 318.500 81.537 M 592.378 83.241 C 588.707 86.464, 585.064 92.907, 585.022 96.250 C 585.002 97.840, 586.373 98, 600 98 C 615 98, 615 98, 615 94.468 C 615 81.680, 601.683 75.071, 592.378 83.241 M 423 107.373 C 423 108.312, 423.900 110.844, 425 113 C 426.100 115.156, 427 117.640, 427 118.519 C 427 119.399, 427.384 119.881, 427.854 119.590 C 428.323 119.300, 429.245 120.243, 429.902 121.685 C 432.322 126.996, 446 146.364, 446 144.479 C 446 144.094, 443.713 140.635, 440.918 136.793 C 438.124 132.950, 433.163 124.589, 429.895 118.213 C 423.356 105.455, 423 104.895, 423 107.373 M 239 109.598 C 237.075 110.973, 232.908 113.491, 229.740 115.194 C 219.153 120.884, 215.639 127.648, 220.829 132.345 C 228.187 139.004, 244 125.836, 244 113.050 C 244 106.236, 243.851 106.133, 239 109.598" stroke="none" fill="#ffffff" fill-rule="evenodd"/></svg>